<?xml version="1.0" standalone="no"?>
<!DOCTYPE svg PUBLIC "-//W3C//DTD SVG 20010904//EN"
 "http://www.w3.org/TR/2001/REC-SVG-20010904/DTD/svg10.dtd">
<svg version="1.0" xmlns="http://www.w3.org/2000/svg"
 width="600.000000pt" height="200.000000pt" viewBox="0 0 600.000000 200.000000"
 preserveAspectRatio="xMidYMid meet">

<g transform="translate(0.000000,200.000000) scale(0.100000,-0.100000)"
fill="#000000" stroke="none">
<path d="M0 1000 l0 -1000 3000 0 3000 0 0 1000 0 1000 -3000 0 -3000 0 0
-1000z m996 151 l499 -649 3 649 2 649 150 0 150 0 0 -800 0 -800 -148 0 -149
0 -499 649 -499 649 -3 -649 -2 -649 -150 0 -150 0 0 800 0 800 148 0 149 0
499 -649z m2804 499 l0 -150 -650 0 -650 0 0 -500 0 -500 500 0 500 0 0 150 0
150 -250 0 -250 0 0 100 0 100 400 0 400 0 0 -400 0 -400 -800 0 -800 0 0 800
0 800 800 0 800 0 0 -150z m702 -499 l3 -649 499 649 499 649 149 0 148 0 0
-800 0 -800 -150 0 -150 0 -2 649 -3 649 -499 -649 -499 -649 -149 0 -148 0 0
800 0 800 150 0 150 0 2 -649z m1321 -1028 c-7 -2 -13 -18 -13 -34 0 -16 -4
-29 -10 -29 -5 0 -10 13 -10 29 0 20 -6 31 -17 34 -10 3 0 5 22 5 22 0 34 -2
28 -5z m54 -4 c8 -8 13 -8 17 0 16 25 36 11 36 -24 0 -19 -4 -35 -10 -35 -5 0
-10 10 -10 21 0 17 -3 19 -13 10 -10 -8 -17 -7 -25 1 -9 9 -12 7 -12 -10 0
-12 -4 -22 -10 -22 -5 0 -10 16 -10 35 0 36 15 46 37 24z"/>
</g>
</svg>
