<?xml version="1.0" standalone="no"?>
<!DOCTYPE svg PUBLIC "-//W3C//DTD SVG 20010904//EN"
 "http://www.w3.org/TR/2001/REC-SVG-20010904/DTD/svg10.dtd">
<svg version="1.0" xmlns="http://www.w3.org/2000/svg"
 width="300.000000pt" height="100.000000pt" viewBox="0 0 300.000000 100.000000"
 preserveAspectRatio="xMidYMid meet">

<g transform="translate(0.000000,100.000000) scale(0.100000,-0.100000)"
fill="#000000" stroke="none">
<path d="M0 500 l0 -500 1500 0 1500 0 0 500 0 500 -1500 0 -1500 0 0 -500z
m499 76 l246 -319 3 321 2 322 75 0 75 0 0 -400 0 -401 -77 3 -77 3 -245 319
-246 319 -3 -321 -2 -322 -75 0 -75 0 0 400 0 401 77 -3 77 -3 245 -319z
m1401 249 l0 -75 -325 0 -325 0 0 -250 0 -250 250 0 250 0 0 75 0 75 -125 0
-125 0 0 50 0 50 200 0 200 0 0 -200 0 -200 -400 0 -400 0 0 400 0 400 400 0
400 0 0 -75z m352 -247 l3 -321 246 319 245 319 77 3 77 3 0 -401 0 -400 -75
0 -75 0 -2 322 -3 321 -246 -319 -245 -319 -77 -3 -77 -3 0 401 0 400 75 0 75
0 2 -322z m631 -505 c-7 -2 -14 -17 -14 -31 l-2 -27 -4 25 c-3 14 -10 28 -17
32 -6 4 3 7 19 7 17 0 24 -3 18 -6z m45 -5 c9 -9 12 -9 12 0 0 7 7 12 15 12
10 0 15 -10 15 -30 0 -16 -4 -30 -10 -30 -5 0 -10 7 -10 16 0 8 -4 13 -9 9 -5
-3 -13 0 -17 7 -6 9 -10 5 -15 -12 -6 -23 -7 -22 -8 8 -1 34 7 40 27 20z"/>
</g>
</svg>
